<svg width="140" height="23" viewBox="0 0 140 23" fill="none" xmlns="http://www.w3.org/2000/svg">
<path d="M0.32 18V0.839999H7.016C9.288 0.839999 11.112 1.664 12.488 3.312C13.864 4.944 14.552 7.04 14.552 9.6C14.552 12.56 13.64 14.808 11.816 16.344C10.488 17.448 8.792 18 6.728 18H0.32ZM3.8 15H6.488C8.072 15 9.224 14.544 9.944 13.632C10.664 12.704 11.024 11.36 11.024 9.6C11.024 7.84 10.64 6.44 9.872 5.4C9.12 4.344 8.024 3.816 6.584 3.816H3.8V15ZM16.181 18V5.688H19.445V18H16.181ZM16.181 3.768V0.839999H19.445V3.768H16.181ZM26.9722 22.2C25.3082 22.2 23.9722 21.864 22.9642 21.192C21.9722 20.52 21.3882 19.576 21.2122 18.36H24.4522C24.7722 19.272 25.5962 19.728 26.9242 19.728C28.7482 19.728 29.6602 18.872 29.6602 17.16V15.816H29.5882C28.7402 16.776 27.6682 17.256 26.3722 17.256C24.9162 17.256 23.6442 16.72 22.5562 15.648C21.4842 14.576 20.9482 13.152 20.9482 11.376C20.9482 9.552 21.4442 8.096 22.4362 7.008C23.4282 5.904 24.7082 5.352 26.2762 5.352C27.7642 5.352 28.9002 5.896 29.6842 6.984H29.7322V5.688H32.8762V17.064C32.8762 18.664 32.3882 19.912 31.4122 20.808C30.4202 21.736 28.9402 22.2 26.9722 22.2ZM26.9242 14.64C27.9002 14.64 28.6282 14.328 29.1082 13.704C29.5882 13.08 29.8282 12.28 29.8282 11.304C29.8282 10.344 29.5722 9.552 29.0602 8.928C28.5642 8.288 27.8442 7.968 26.9002 7.968C26.0682 7.968 25.3962 8.272 24.8842 8.88C24.3882 9.488 24.1402 10.304 24.1402 11.328C24.1402 12.368 24.3882 13.184 24.8842 13.776C25.3962 14.352 26.0762 14.64 26.9242 14.64ZM34.9779 18V5.688H38.2419V18H34.9779ZM34.9779 3.768V0.839999H38.2419V3.768H34.9779ZM39.6251 7.848V5.688H41.3291V1.848H44.5211V5.688H46.6331V7.848H44.5211V14.376C44.5211 15.192 44.9291 15.6 45.7451 15.6L46.7051 15.576V17.976C46.2091 18.008 45.5291 18.024 44.6651 18.024C43.7211 18.024 42.9291 17.8 42.2891 17.352C41.6491 16.888 41.3291 16.128 41.3291 15.072V7.848H39.6251ZM56.183 18C56.023 17.792 55.895 17.336 55.799 16.632H55.751C55.399 17.16 54.951 17.568 54.407 17.856C53.863 18.144 53.103 18.288 52.127 18.288C50.831 18.288 49.791 17.96 49.007 17.304C48.223 16.648 47.831 15.72 47.831 14.52C47.831 13.272 48.263 12.36 49.127 11.784C49.991 11.192 51.207 10.784 52.775 10.56C53.927 10.4 54.711 10.24 55.127 10.08C55.543 9.904 55.751 9.6 55.751 9.168C55.751 8.72 55.575 8.368 55.223 8.112C54.871 7.84 54.359 7.704 53.687 7.704C52.199 7.704 51.407 8.28 51.311 9.432H48.407C48.455 8.264 48.927 7.296 49.823 6.528C50.719 5.76 52.015 5.376 53.711 5.376C57.167 5.376 58.895 6.888 58.895 9.912V16.176C58.895 17.104 59.039 17.672 59.327 17.88V18H56.183ZM52.919 16.008C53.815 16.008 54.519 15.776 55.031 15.312C55.559 14.848 55.823 14.296 55.823 13.656V11.808C55.471 12.016 54.711 12.256 53.543 12.528C52.615 12.736 51.959 12.976 51.575 13.248C51.191 13.504 50.999 13.904 50.999 14.448C50.999 15.488 51.639 16.008 52.919 16.008ZM61.0181 18V0.839999H64.2821V18H61.0181ZM66.695 18V0.839999H74.375C76.215 0.839999 77.599 1.256 78.527 2.088C79.439 2.904 79.895 3.976 79.895 5.304C79.895 6.984 78.999 8.128 77.207 8.736V8.808C78.167 9.096 78.935 9.616 79.511 10.368C80.103 11.12 80.399 12.016 80.399 13.056C80.399 14.576 79.895 15.768 78.887 16.632C77.847 17.544 76.407 18 74.567 18H66.695ZM70.175 10.32V15.12H74.183C75.015 15.12 75.671 14.912 76.151 14.496C76.631 14.064 76.871 13.496 76.871 12.792C76.871 12.008 76.607 11.4 76.079 10.968C75.567 10.536 74.903 10.32 74.087 10.32H70.175ZM70.175 7.752H73.943C74.711 7.752 75.327 7.576 75.791 7.224C76.255 6.856 76.487 6.344 76.487 5.688C76.487 5.048 76.263 4.552 75.815 4.2C75.383 3.848 74.783 3.672 74.015 3.672H70.175V7.752ZM87.965 18.36C85.981 18.36 84.421 17.752 83.285 16.536C82.149 15.304 81.581 13.736 81.581 11.832C81.581 9.992 82.149 8.456 83.285 7.224C84.421 5.976 85.877 5.352 87.653 5.352C89.589 5.352 91.085 6.024 92.141 7.368C93.197 8.712 93.725 10.512 93.725 12.768H84.797C84.925 13.744 85.253 14.504 85.781 15.048C86.309 15.576 87.029 15.84 87.941 15.84C89.141 15.84 89.933 15.336 90.317 14.328H93.533C93.293 15.48 92.685 16.44 91.709 17.208C90.733 17.976 89.485 18.36 87.965 18.36ZM87.701 7.872C86.117 7.872 85.165 8.752 84.845 10.512H90.317C90.269 9.728 90.005 9.096 89.525 8.616C89.045 8.12 88.437 7.872 87.701 7.872ZM102.988 18C102.828 17.792 102.7 17.336 102.604 16.632H102.556C102.204 17.16 101.756 17.568 101.212 17.856C100.668 18.144 99.9077 18.288 98.9317 18.288C97.6357 18.288 96.5957 17.96 95.8117 17.304C95.0277 16.648 94.6357 15.72 94.6357 14.52C94.6357 13.272 95.0677 12.36 95.9317 11.784C96.7957 11.192 98.0117 10.784 99.5797 10.56C100.732 10.4 101.516 10.24 101.932 10.08C102.348 9.904 102.556 9.6 102.556 9.168C102.556 8.72 102.38 8.368 102.028 8.112C101.676 7.84 101.164 7.704 100.492 7.704C99.0037 7.704 98.2117 8.28 98.1157 9.432H95.2117C95.2597 8.264 95.7317 7.296 96.6277 6.528C97.5237 5.76 98.8197 5.376 100.516 5.376C103.972 5.376 105.7 6.888 105.7 9.912V16.176C105.7 17.104 105.844 17.672 106.132 17.88V18H102.988ZM99.7237 16.008C100.62 16.008 101.324 15.776 101.836 15.312C102.364 14.848 102.628 14.296 102.628 13.656V11.808C102.276 12.016 101.516 12.256 100.348 12.528C99.4197 12.736 98.7637 12.976 98.3797 13.248C97.9957 13.504 97.8037 13.904 97.8037 14.448C97.8037 15.488 98.4437 16.008 99.7237 16.008ZM118.695 18H115.551V16.56H115.479C115.031 17.168 114.535 17.616 113.991 17.904C113.463 18.192 112.783 18.336 111.951 18.336C110.607 18.336 109.559 17.936 108.807 17.136C108.055 16.336 107.679 15.256 107.679 13.896V5.688H110.919V13.344C110.919 14.832 111.599 15.576 112.959 15.576C113.711 15.576 114.311 15.32 114.759 14.808C115.207 14.296 115.431 13.624 115.431 12.792V5.688H118.695V18ZM120.086 7.848V5.688H121.79V1.848H124.982V5.688H127.094V7.848H124.982V14.376C124.982 15.192 125.39 15.6 126.206 15.6L127.166 15.576V17.976C126.67 18.008 125.99 18.024 125.126 18.024C124.182 18.024 123.39 17.8 122.75 17.352C122.11 16.888 121.79 16.128 121.79 15.072V7.848H120.086ZM129.273 22.032V19.464H130.425C131.641 19.464 132.249 18.904 132.249 17.784C132.249 17.24 131.937 16.128 131.313 14.448L128.001 5.688H131.433L133.257 11.232L134.049 13.92H134.097C134.321 12.88 134.561 11.984 134.817 11.232L136.545 5.688H139.833L135.537 18.312C135.057 19.72 134.513 20.688 133.905 21.216C133.313 21.76 132.409 22.032 131.193 22.032H129.273Z" fill="black"/>
</svg>
