<svg width="34" height="34" viewBox="0 0 34 34" fill="none" xmlns="http://www.w3.org/2000/svg">
<path fill-rule="evenodd" clip-rule="evenodd" d="M17 11.6875C14.066 11.6875 11.6875 14.066 11.6875 17C11.6875 19.9341 14.066 22.3125 17 22.3125C19.9341 22.3125 22.3125 19.9341 22.3125 17C22.3125 14.066 19.9341 11.6875 17 11.6875ZM13.8125 17C13.8125 15.2396 15.2396 13.8125 17 13.8125C18.7603 13.8125 20.1875 15.2396 20.1875 17C20.1875 18.7603 18.7603 20.1875 17 20.1875C15.2396 20.1875 13.8125 18.7603 13.8125 17Z" fill="white"/>
<path fill-rule="evenodd" clip-rule="evenodd" d="M17.0001 4.60423C10.6051 4.60423 6.2976 8.43518 3.79758 11.6831L3.75248 11.7417C3.18709 12.476 2.66635 13.1523 2.31308 13.952C1.93476 14.8083 1.77094 15.7416 1.77094 17.0001C1.77094 18.2585 1.93476 19.1918 2.31308 20.0482C2.66635 20.8479 3.18709 21.5242 3.7525 22.2584L3.79758 22.317C6.2976 25.5649 10.6051 29.3959 17.0001 29.3959C23.3951 29.3959 27.7026 25.5649 30.2026 22.317L30.2476 22.2584C30.8132 21.5242 31.3338 20.8479 31.6871 20.0482C32.0655 19.1918 32.2293 18.2585 32.2293 17.0001C32.2293 15.7416 32.0655 14.8083 31.6871 13.952C31.3338 13.1523 30.8132 12.476 30.2476 11.7417L30.2026 11.6831C27.7026 8.43518 23.3951 4.60423 17.0001 4.60423ZM5.4815 12.9793C7.78984 9.98037 11.5464 6.72923 17.0001 6.72923C22.4537 6.72923 26.2104 9.98037 28.5187 12.9793C29.1401 13.7865 29.504 14.2689 29.7433 14.8106C29.9671 15.3171 30.1043 15.936 30.1043 17.0001C30.1043 18.0641 29.9671 18.6831 29.7433 19.1895C29.504 19.7313 29.1401 20.2136 28.5187 21.0208C26.2104 24.0198 22.4537 27.2709 17.0001 27.2709C11.5464 27.2709 7.78984 24.0198 5.4815 21.0208C4.86017 20.2136 4.49623 19.7313 4.25684 19.1895C4.03312 18.6831 3.89594 18.0641 3.89594 17.0001C3.89594 15.936 4.03312 15.3171 4.25684 14.8106C4.49623 14.2689 4.86016 13.7865 5.4815 12.9793Z" fill="white"/>
</svg>
